<svg width="480pt" height="290pt" viewBox="0 0 480 290" version="1.1" xmlns="http://www.w3.org/2000/svg" xmlns:xlink="http://www.w3.org/1999/xlink">
  <g id="surface2">
    <path style=" stroke:none;fill-rule:evenodd;fill:rgb(76.862745%,7.058824%,18.823529%);fill-opacity:1;" d="M 265.898438 72.148438 L 239.199219 72.148438 L 239.199219 68.949219 L 269.398438 68.949219 C 268.398438 70.082031 267.234375 71.148438 265.898438 72.148438 M 239.199219 138.5 L 239.199219 135.300781 L 265.898438 135.300781 C 267.234375 136.300781 268.398438 137.367188 269.398438 138.5 L 239.199219 138.5 M 239.199219 127.800781 C 239.199219 127.832031 239.199219 127.832031 239.199219 127.800781 C 240.800781 127.832031 242.351562 127.898438 243.851562 128 C 249.117188 128.464844 253.867188 129.550781 258.101562 131.25 L 239.199219 131.25 L 239.199219 127.800781 M 239.199219 76.25 L 258.101562 76.25 C 253.867188 77.917969 249.117188 78.984375 243.851562 79.449219 C 242.351562 79.582031 240.800781 79.648438 239.199219 79.648438 C 239.199219 79.648438 239.199219 79.648438 239.199219 79.648438 L 239.199219 76.25 M 238.648438 87.148438 L 219.800781 87.148438 C 224 85.449219 228.734375 84.367188 234 83.898438 C 235.5 83.765625 237.050781 83.699219 238.648438 83.699219 C 238.648438 83.699219 238.648438 83.699219 238.648438 83.699219 L 238.648438 87.148438 M 238.648438 94.398438 L 208.449219 94.398438 C 209.449219 93.265625 210.632812 92.199219 212 91.199219 L 238.648438 91.199219 L 238.648438 94.398438 M 238.648438 101.699219 L 204.648438 101.699219 C 204.816406 100.601562 205.148438 99.535156 205.648438 98.5 L 238.648438 98.5 L 238.648438 101.699219 M 238.648438 109 L 205.648438 109 C 205.148438 107.933594 204.816406 106.851562 204.648438 105.75 L 238.648438 105.75 L 238.648438 109 M 238.648438 116.25 L 212 116.25 C 210.632812 115.25 209.449219 114.183594 208.449219 113.050781 L 238.648438 113.050781 L 238.648438 116.25 M 238.648438 123.75 C 238.648438 123.75 238.648438 123.75 238.648438 123.75 C 237.082031 123.75 235.535156 123.683594 234 123.550781 C 228.734375 123.117188 224 122.050781 219.800781 120.351562 L 238.648438 120.351562 L 238.648438 123.75 M 289.398438 103.851562 C 288.832031 87.382812 282.398438 74.398438 270.101562 64.898438 L 239.199219 64.898438 L 239.199219 61.648438 L 265.300781 61.648438 C 262.566406 60.015625 259.667969 58.667969 256.601562 57.601562 L 239.199219 57.601562 L 239.199219 54.851562 C 225.566406 55.484375 214.265625 60.398438 205.300781 69.601562 C 196.300781 78.765625 191.632812 90.183594 191.300781 103.851562 C 191.632812 117.550781 196.300781 128.984375 205.300781 138.148438 C 214.265625 147.316406 225.566406 152.234375 239.199219 152.898438 L 239.199219 149.851562 L 257.351562 149.851562 C 260.316406 148.785156 263.132812 147.433594 265.800781 145.800781 L 239.199219 145.800781 L 239.199219 142.601562 L 270.449219 142.601562 C 282.515625 133.066406 288.832031 120.148438 289.398438 103.851562 "/>
    <path style=" stroke:none;fill-rule:evenodd;fill:rgb(100%,100%,100%);fill-opacity:1;" d="M 234 123.550781 C 235.535156 123.683594 237.082031 123.75 238.648438 123.75 C 238.683594 123.75 238.699219 123.75 238.699219 123.75 L 238.699219 120.351562 L 219.800781 120.351562 C 224.035156 122.050781 228.765625 123.117188 234 123.550781 "/>
    <path style=" stroke:none;fill-rule:evenodd;fill:rgb(100%,100%,100%);fill-opacity:1;" d="M 212 116.25 L 238.648438 116.25 L 238.648438 113.050781 L 208.449219 113.050781 C 209.449219 114.183594 210.632812 115.25 212 116.25 "/>
    <path style=" stroke:none;fill-rule:evenodd;fill:rgb(100%,100%,100%);fill-opacity:1;" d="M 205.648438 108.949219 L 238.699219 108.949219 L 238.699219 105.75 L 204.648438 105.75 C 204.851562 106.851562 205.183594 107.917969 205.648438 108.949219 "/>
    <path style=" stroke:none;fill-rule:evenodd;fill:rgb(100%,100%,100%);fill-opacity:1;" d="M 208.449219 94.398438 L 238.648438 94.398438 L 238.648438 91.199219 L 212 91.199219 C 210.632812 92.199219 209.449219 93.265625 208.449219 94.398438 "/>
    <path style=" stroke:none;fill-rule:evenodd;fill:rgb(100%,100%,100%);fill-opacity:1;" d="M 204.648438 101.648438 L 238.699219 101.648438 L 238.699219 98.449219 L 205.648438 98.449219 C 205.183594 99.484375 204.851562 100.550781 204.648438 101.648438 "/>
    <path style=" stroke:none;fill-rule:evenodd;fill:rgb(100%,100%,100%);fill-opacity:1;" d="M 238.648438 83.699219 C 237.082031 83.699219 235.535156 83.765625 234 83.898438 C 228.765625 84.367188 224.035156 85.433594 219.800781 87.101562 L 238.699219 87.101562 L 238.699219 83.699219 C 238.699219 83.699219 238.683594 83.699219 238.648438 83.699219 "/>
    <path style=" stroke:none;fill-rule:evenodd;fill:rgb(100%,100%,100%);fill-opacity:1;" d="M 239.199219 152.851562 C 239.601562 152.882812 239.984375 152.898438 240.351562 152.898438 C 246.382812 152.867188 252.066406 151.851562 257.398438 149.851562 L 239.199219 149.851562 L 239.199219 152.851562 "/>
    <path style=" stroke:none;fill-rule:evenodd;fill:rgb(100%,100%,100%);fill-opacity:1;" d="M 265.898438 135.300781 L 239.199219 135.300781 L 239.199219 138.5 L 269.398438 138.5 C 268.398438 137.367188 267.234375 136.300781 265.898438 135.300781 "/>
    <path style=" stroke:none;fill-rule:evenodd;fill:rgb(100%,100%,100%);fill-opacity:1;" d="M 239.199219 145.800781 L 265.800781 145.800781 C 267.398438 144.832031 268.949219 143.765625 270.449219 142.601562 L 239.199219 142.601562 L 239.199219 145.800781 "/>
    <path style=" stroke:none;fill-rule:evenodd;fill:rgb(100%,100%,100%);fill-opacity:1;" d="M 243.898438 128 C 242.367188 127.867188 240.800781 127.800781 239.199219 127.800781 C 239.199219 127.800781 239.199219 127.800781 239.199219 127.800781 L 239.199219 131.199219 L 258.101562 131.199219 C 253.867188 129.535156 249.132812 128.464844 243.898438 128 "/>
    <path style=" stroke:none;fill-rule:evenodd;fill:rgb(100%,100%,100%);fill-opacity:1;" d="M 256.601562 57.550781 C 251.5 55.75 246.082031 54.832031 240.351562 54.800781 C 239.984375 54.800781 239.601562 54.816406 239.199219 54.851562 L 239.199219 57.550781 L 256.601562 57.550781 "/>
    <path style=" stroke:none;fill-rule:evenodd;fill:rgb(100%,100%,100%);fill-opacity:1;" d="M 239.199219 72.148438 L 265.898438 72.148438 C 267.234375 71.148438 268.398438 70.082031 269.398438 68.949219 L 239.199219 68.949219 L 239.199219 72.148438 "/>
    <path style=" stroke:none;fill-rule:evenodd;fill:rgb(100%,100%,100%);fill-opacity:1;" d="M 239.199219 64.851562 L 270.101562 64.851562 C 268.566406 63.714844 266.984375 62.648438 265.351562 61.648438 L 239.199219 61.648438 L 239.199219 64.851562 "/>
    <path style=" stroke:none;fill-rule:evenodd;fill:rgb(100%,100%,100%);fill-opacity:1;" d="M 243.898438 79.398438 C 249.132812 78.964844 253.867188 77.898438 258.101562 76.199219 L 239.199219 76.199219 L 239.199219 79.601562 C 239.199219 79.601562 239.199219 79.601562 239.199219 79.601562 C 240.800781 79.601562 242.367188 79.535156 243.898438 79.398438 "/>
  </g>
  <g id="surface4">
    <text style="fill:rgb(69,85,96)" font-family="Albertus Medium" font-size="50" transform="matrix(1,0,0,1,147.678224,206.65)" ><![CDATA[IT2GO2]]></text>
  </g>
</svg>