<?xml version="1.0" encoding="iso-8859-1"?>
<!-- Generator: Adobe Illustrator 19.0.0, SVG Export Plug-In . SVG Version: 6.00 Build 0)  -->
<svg version="1.1" id="Layer_1" xmlns="http://www.w3.org/2000/svg" xmlns:xlink="http://www.w3.org/1999/xlink" x="0px" y="0px"
	 viewBox="0 0 512 512" style="enable-background:new 0 0 512 512;" xml:space="preserve">
<g>
	<g>
		<path d="M499.2,409.6H12.8c-7.074,0-12.8,5.726-12.8,12.8s5.726,12.8,12.8,12.8h486.4c7.074,0,12.8-5.726,12.8-12.8
			S506.274,409.6,499.2,409.6z"/>
	</g>
</g>
<g>
	<g>
		<path d="M460.8,76.8H51.2c-14.14,0-25.6,11.46-25.6,25.6v256c0,14.14,11.46,25.6,25.6,25.6h409.6c14.14,0,25.6-11.46,25.6-25.6
			v-256C486.4,88.26,474.94,76.8,460.8,76.8z M460.8,358.4H51.2v-256h409.6V358.4z"/>
	</g>
</g>
<g>
</g>
<g>
</g>
<g>
</g>
<g>
</g>
<g>
</g>
<g>
</g>
<g>
</g>
<g>
</g>
<g>
</g>
<g>
</g>
<g>
</g>
<g>
</g>
<g>
</g>
<g>
</g>
<g>
</g>
</svg>
