<?xml version="1.0" encoding="iso-8859-1"?>
<!-- Generator: Adobe Illustrator 19.0.0, SVG Export Plug-In . SVG Version: 6.00 Build 0)  -->
<svg version="1.1" id="Capa_1" xmlns="http://www.w3.org/2000/svg" xmlns:xlink="http://www.w3.org/1999/xlink" x="0px" y="0px"
	 viewBox="0 0 418.473 418.473" style="enable-background:new 0 0 418.473 418.473;" xml:space="preserve">
<path id="XMLID_512_" d="M162.724,249.559v32.211c0,14.739,11.991,26.73,26.73,26.73h12.782v17.562
	c-7.376,2.825-12.627,9.979-12.627,18.337c0,10.823,8.805,19.627,19.627,19.627c10.823,0,19.628-8.805,19.628-19.627
	c0-8.358-5.251-15.513-12.628-18.338V308.5h12.783c14.74,0,26.731-11.991,26.731-26.73v-47.627
	c7.376-2.825,12.627-9.979,12.627-18.337c0-10.823-8.805-19.627-19.627-19.627c-10.823,0-19.628,8.805-19.628,19.627
	c0,8.358,5.251,15.513,12.628,18.338v47.626c0,7.02-5.711,12.73-12.731,12.73h-12.783v-96.131
	c7.377-2.825,12.628-9.98,12.628-18.338c0-10.823-8.805-19.627-19.628-19.627c-10.822,0-19.627,8.805-19.627,19.627
	c0,8.358,5.251,15.513,12.627,18.337V294.5h-12.782c-7.02,0-12.73-5.711-12.73-12.73v-32.212
	c7.376-2.825,12.627-9.979,12.627-18.337c0-10.823-8.805-19.627-19.627-19.627c-10.823,0-19.628,8.805-19.628,19.627
	C150.096,239.579,155.347,246.733,162.724,249.559z M248.751,210.178c3.103,0,5.627,2.524,5.627,5.627s-2.524,5.627-5.627,5.627
	c-3.104,0-5.628-2.524-5.628-5.627S245.647,210.178,248.751,210.178z M209.236,174.404c3.104,0,5.628,2.524,5.628,5.627
	s-2.524,5.627-5.628,5.627c-3.103,0-5.627-2.524-5.627-5.627S206.134,174.404,209.236,174.404z M209.236,338.772
	c3.104,0,5.628,2.524,5.628,5.627s-2.524,5.627-5.628,5.627c-3.103,0-5.627-2.524-5.627-5.627S206.134,338.772,209.236,338.772z
	 M169.724,225.593c3.103,0,5.627,2.524,5.627,5.627s-2.524,5.627-5.627,5.627c-3.104,0-5.628-2.524-5.628-5.627
	S166.62,225.593,169.724,225.593z M294.907,0H123.563c-10.931,0-19.824,8.893-19.824,19.824v378.824
	c0,10.931,8.894,19.825,19.824,19.825h171.344c10.933,0,19.826-8.894,19.826-19.825V19.824C314.733,8.893,305.84,0,294.907,0z
	 M300.733,398.648c0,3.212-2.613,5.825-5.826,5.825H123.563c-3.212,0-5.824-2.613-5.824-5.825V119.957h182.994V398.648z
	 M300.733,105.957H117.739V19.824c0-3.157,2.667-5.824,5.824-5.824h171.344c3.158,0,5.826,2.667,5.826,5.824V105.957z"/>
<g>
</g>
<g>
</g>
<g>
</g>
<g>
</g>
<g>
</g>
<g>
</g>
<g>
</g>
<g>
</g>
<g>
</g>
<g>
</g>
<g>
</g>
<g>
</g>
<g>
</g>
<g>
</g>
<g>
</g>
</svg>
