<?xml version="1.0" encoding="UTF-8" standalone="no"?>
<svg
   xmlns:dc="http://purl.org/dc/elements/1.1/"
   xmlns:cc="http://creativecommons.org/ns#"
   xmlns:rdf="http://www.w3.org/1999/02/22-rdf-syntax-ns#"
   xmlns:svg="http://www.w3.org/2000/svg"
   xmlns="http://www.w3.org/2000/svg"
   xmlns:sodipodi="http://sodipodi.sourceforge.net/DTD/sodipodi-0.dtd"
   xmlns:inkscape="http://www.inkscape.org/namespaces/inkscape"
   width="256pt"
   height="256pt"
   viewBox="0 0 256 256"
   version="1.1"
   id="svg3500"
   inkscape:version="0.91 r13725"
   sodipodi:docname="resizedlogo.svg">
  <metadata
     id="metadata3540">
    <rdf:RDF>
      <cc:Work
         rdf:about="">
        <dc:format>image/svg+xml</dc:format>
        <dc:type
           rdf:resource="http://purl.org/dc/dcmitype/StillImage" />
        <dc:title />
      </cc:Work>
    </rdf:RDF>
  </metadata>
  <defs
     id="defs3538" />
  <sodipodi:namedview
     pagecolor="#ffffff"
     bordercolor="#666666"
     borderopacity="1"
     objecttolerance="10"
     gridtolerance="10"
     guidetolerance="10"
     inkscape:pageopacity="0"
     inkscape:pageshadow="2"
     inkscape:window-width="928"
     inkscape:window-height="1028"
     id="namedview3536"
     showgrid="false"
     inkscape:zoom="1.7926376"
     inkscape:cx="191.33481"
     inkscape:cy="158.93081"
     inkscape:window-x="992"
     inkscape:window-y="24"
     inkscape:window-maximized="0"
     inkscape:current-layer="svg3500" />
  <path
     inkscape:connector-curvature="0"
     id="path3503"
     d="m 163.13389,40.497777 -38.1319,0 0,-4.569133 43.13061,0 c -1.42821,1.617885 -3.09073,3.14093 -4.99871,4.569133 m -38.1319,94.763463 0,-4.56913 38.1319,0 c 1.90798,1.4282 3.5705,2.95125 4.99871,4.56913 l -43.13061,0 m 0,-15.28065 c 0,0.0446 0,0.0446 0,0 2.28736,0.0446 4.50218,0.13954 6.64449,0.28453 7.52038,0.66388 14.30435,2.21482 20.35188,4.64166 l -26.99637,0 0,-4.92619 m 0,-73.624952 26.99637,0 c -6.04753,2.382197 -12.8315,3.905241 -20.35188,4.569132 -2.14231,0.189683 -4.35713,0.284525 -6.64449,0.284525 0,0 0,0 0,0 l 0,-4.853657 m -0.78662,15.565176 -26.918277,0 c 5.997337,-2.426829 12.758977,-3.972188 20.279367,-4.641658 2.1423,-0.189684 4.35713,-0.284525 6.63891,-0.284525 0,0 0,0 0,0 l 0,4.926183 m 0,10.354468 -43.130603,0 C 82.51297,70.657396 84.203376,69.134352 86.156,67.70615 l 38.05937,0 0,4.569132 m 0,10.426995 -48.558886,0 c 0.239895,-1.567681 0.714101,-3.090721 1.428202,-4.569134 l 47.130684,0 0,4.569134 m 0,10.426992 -47.130684,0 C 76.370585,91.60622 75.896379,90.060862 75.656484,88.487611 l 48.558886,0 0,4.641658 m 0,10.354471 -38.05937,0 c -1.952624,-1.4282 -3.64303,-2.95125 -5.071233,-4.569136 l 43.130603,0 0,4.569136 m 0,10.71152 c 0,0 0,0 0,0 -2.23715,0 -4.4464,-0.0948 -6.63891,-0.28453 -7.52039,-0.61925 -14.28203,-2.1423 -20.279367,-4.56913 l 26.918277,0 0,4.85366 M 196.69665,85.776255 C 195.8877,62.255548 186.69923,43.711232 169.13679,30.143308 l -44.1348,0 0,-4.641658 37.27832,0 c -3.90524,-2.331987 -8.0448,-4.256713 -12.42425,-5.779758 l -24.85407,0 0,-3.927557 C 105.53158,16.69812 89.391764,23.716397 76.588157,36.860322 63.734335,49.94846 57.067528,66.255631 56.593322,85.776255 c 0.474206,19.565255 7.141013,35.894745 19.994835,48.982885 12.803607,13.09372 28.943423,20.11756 48.413833,21.06599 l 0,-4.35156 25.92522,0 c 4.23441,-1.52304 8.2568,-3.45335 12.0672,-5.78533 l -37.99242,0 0,-4.56914 44.63133,0 c 17.23326,-13.61812 26.25438,-32.0676 27.06333,-55.342845"
     style="fill:#0277bd;fill-opacity:1;fill-rule:evenodd;stroke:none" />
  <path
     inkscape:connector-curvature="0"
     id="path3505"
     d="m 117.57646,113.91073 c 2.19251,0.18968 4.40176,0.28453 6.63891,0.28453 0.0503,0 0.0726,0 0.0726,0 l 0,-4.85366 -26.990798,0 c 6.047548,2.42683 12.803608,3.94988 20.279358,4.56913"
     style="fill:#ffffff;fill-opacity:1;fill-rule:evenodd;stroke:none" />
  <path
     inkscape:connector-curvature="0"
     id="path3507"
     d="m 86.156,103.48374 38.05937,0 0,-4.569136 -43.130603,0 c 1.428203,1.617886 3.118609,3.140936 5.071233,4.569136"
     style="fill:#ffffff;fill-opacity:1;fill-rule:evenodd;stroke:none" />
  <path
     inkscape:connector-curvature="0"
     id="path3509"
     d="m 77.084686,93.056745 47.203204,0 0,-4.569134 -48.631406,0 c 0.290096,1.573251 0.764302,3.096301 1.428202,4.569134"
     style="fill:#ffffff;fill-opacity:1;fill-rule:evenodd;stroke:none" />
  <path
     inkscape:connector-curvature="0"
     id="path3511"
     d="m 81.084767,72.275282 43.130603,0 0,-4.569132 -38.05937,0 c -1.952624,1.428202 -3.64303,2.951246 -5.071233,4.569132"
     style="fill:#ffffff;fill-opacity:1;fill-rule:evenodd;stroke:none" />
  <path
     inkscape:connector-curvature="0"
     id="path3513"
     d="m 75.656484,82.629753 48.631406,0 0,-4.569135 -47.203204,0 c -0.6639,1.478412 -1.138106,3.001454 -1.428202,4.569135"
     style="fill:#ffffff;fill-opacity:1;fill-rule:evenodd;stroke:none" />
  <path
     inkscape:connector-curvature="0"
     id="path3515"
     d="m 124.21537,56.994631 c -2.23715,0 -4.4464,0.09485 -6.63891,0.284525 -7.47576,0.66947 -14.23181,2.192514 -20.279367,4.57471 l 26.990797,0 0,-4.859235 c 0,0 -0.0223,0 -0.0726,0"
     style="fill:#ffffff;fill-opacity:1;fill-rule:evenodd;stroke:none" />
  <path
     inkscape:connector-curvature="0"
     id="path3517"
     d="m 125.00199,155.75818 c 0.57463,0.0446 1.12136,0.067 1.64578,0.067 8.61385,-0.0446 16.73118,-1.49516 24.3464,-4.35156 l -25.99218,0 0,4.28461"
     style="fill:#ffffff;fill-opacity:1;fill-rule:evenodd;stroke:none" />
  <path
     inkscape:connector-curvature="0"
     id="path3519"
     d="m 163.13389,130.69211 -38.1319,0 0,4.56913 43.13061,0 c -1.42821,-1.61788 -3.09073,-3.14093 -4.99871,-4.56913"
     style="fill:#ffffff;fill-opacity:1;fill-rule:evenodd;stroke:none" />
  <path
     inkscape:connector-curvature="0"
     id="path3521"
     d="m 125.00199,145.68824 37.99242,0 c 2.28178,-1.38358 4.49661,-2.90663 6.63891,-4.56914 l -44.63133,0 0,4.56914"
     style="fill:#ffffff;fill-opacity:1;fill-rule:evenodd;stroke:none" />
  <path
     inkscape:connector-curvature="0"
     id="path3523"
     d="m 131.71343,120.26512 c -2.18693,-0.18968 -4.42408,-0.28453 -6.71144,-0.28453 0,0 0,0 0,0 l 0,4.85366 26.99637,0 c -6.04753,-2.37661 -12.80919,-3.90525 -20.28493,-4.56913"
     style="fill:#ffffff;fill-opacity:1;fill-rule:evenodd;stroke:none" />
  <path
     inkscape:connector-curvature="0"
     id="path3525"
     d="m 149.85606,19.649366 c -7.28606,-2.57188 -15.02402,-3.882925 -23.20829,-3.927557 -0.52442,0 -1.07115,0.02232 -1.64578,0.07252 l 0,3.855031 24.85407,0"
     style="fill:#ffffff;fill-opacity:1;fill-rule:evenodd;stroke:none" />
  <path
     inkscape:connector-curvature="0"
     id="path3527"
     d="m 125.00199,40.497777 38.1319,0 c 1.90798,-1.428203 3.5705,-2.951248 4.99871,-4.569133 l -43.13061,0 0,4.569133"
     style="fill:#ffffff;fill-opacity:1;fill-rule:evenodd;stroke:none" />
  <path
     inkscape:connector-curvature="0"
     id="path3529"
     d="m 125.00199,30.07636 44.1348,0 c -2.1925,-1.623464 -4.45198,-3.146507 -6.78396,-4.57471 l -37.35084,0 0,4.57471"
     style="fill:#ffffff;fill-opacity:1;fill-rule:evenodd;stroke:none" />
  <path
     inkscape:connector-curvature="0"
     id="path3531"
     d="m 131.71343,50.852245 c 7.47574,-0.61926 14.2374,-2.142304 20.28493,-4.569133 l -26.99637,0 0,4.859235 c 0,0 0,0 0,0 2.28736,0 4.52451,-0.09485 6.71144,-0.290102"
     style="fill:#ffffff;fill-opacity:1;fill-rule:evenodd;stroke:none" />
  <g
     id="surface4"
     transform="matrix(1.4282025,0,0,1.4282025,-216.62293,-62.544803)">
    <text
       style="font-size:50px;font-family:'Albertus Medium';fill:#455560"
       font-size="50"
       transform="translate(147.67822,206.65)"
       id="text3534"><![CDATA[IT2GO2]]></text>
  </g>
</svg>
