<?xml version="1.0" encoding="UTF-8" standalone="no"?>
<svg
   xmlns:dc="http://purl.org/dc/elements/1.1/"
   xmlns:cc="http://creativecommons.org/ns#"
   xmlns:rdf="http://www.w3.org/1999/02/22-rdf-syntax-ns#"
   xmlns:svg="http://www.w3.org/2000/svg"
   xmlns="http://www.w3.org/2000/svg"
   xmlns:sodipodi="http://sodipodi.sourceforge.net/DTD/sodipodi-0.dtd"
   xmlns:inkscape="http://www.inkscape.org/namespaces/inkscape"
   width="256pt"
   height="256pt"
   viewBox="0 0 256 256"
   version="1.1"
   id="svg3500"
   inkscape:version="0.91 r13725"
   sodipodi:docname="resizedlogowhite.svg">
  <metadata
     id="metadata3540">
    <rdf:RDF>
      <cc:Work
         rdf:about="">
        <dc:format>image/svg+xml</dc:format>
        <dc:type
           rdf:resource="http://purl.org/dc/dcmitype/StillImage" />
        <dc:title></dc:title>
      </cc:Work>
    </rdf:RDF>
  </metadata>
  <defs
     id="defs3538" />
  <sodipodi:namedview
     pagecolor="#ffffff"
     bordercolor="#666666"
     borderopacity="1"
     objecttolerance="10"
     gridtolerance="10"
     guidetolerance="10"
     inkscape:pageopacity="0"
     inkscape:pageshadow="2"
     inkscape:window-width="1855"
     inkscape:window-height="1056"
     id="namedview3536"
     showgrid="false"
     inkscape:zoom="1.7926376"
     inkscape:cx="305.07784"
     inkscape:cy="158.93081"
     inkscape:window-x="65"
     inkscape:window-y="24"
     inkscape:window-maximized="1"
     inkscape:current-layer="svg3500" />
  <g
     id="surface2"
     transform="matrix(1.4282025,0,0,1.4282025,-216.62293,-62.544803)">
    <path
       style="fill:#c2112e;fill-opacity:1;fill-rule:evenodd;stroke:none"
       d="m 265.89844,72.148438 -26.69922,0 0,-3.199219 30.19922,0 c -1,1.132812 -2.16407,2.199219 -3.5,3.199219 M 239.19922,138.5 l 0,-3.19922 26.69922,0 c 1.33593,1 2.5,2.06641 3.5,3.19922 l -30.19922,0 m 0,-10.69922 c 0,0.0312 0,0.0312 0,0 1.60156,0.0312 3.15234,0.0977 4.65234,0.19922 5.26563,0.46484 10.01563,1.55078 14.25,3.25 l -18.90234,0 0,-3.44922 m 0,-51.55078 18.90234,0 c -4.23437,1.667969 -8.98437,2.734375 -14.25,3.199219 -1.5,0.132812 -3.05078,0.199219 -4.65234,0.199219 0,0 0,0 0,0 l 0,-3.398438 m -0.55078,10.898438 -18.84766,0 c 4.19922,-1.699219 8.93359,-2.78125 14.19922,-3.25 1.5,-0.132813 3.05078,-0.199219 4.64844,-0.199219 0,0 0,0 0,0 l 0,3.449219 m 0,7.25 -30.19922,0 c 1,-1.132813 2.18359,-2.199219 3.55078,-3.199219 l 26.64844,0 0,3.199219 m 0,7.300782 -34,0 c 0.16797,-1.09766 0.5,-2.164064 1,-3.19922 l 33,0 0,3.19922 m 0,7.30078 -33,0 c -0.5,-1.06641 -0.83203,-2.14844 -1,-3.25 l 34,0 0,3.25 m 0,7.25 -26.64844,0 c -1.36719,-1 -2.55078,-2.06641 -3.55078,-3.19922 l 30.19922,0 0,3.19922 m 0,7.5 c 0,0 0,0 0,0 -1.56641,0 -3.11328,-0.0664 -4.64844,-0.19922 -5.26563,-0.43359 -10,-1.5 -14.19922,-3.19922 l 18.84766,0 0,3.39844 m 50.75,-19.89844 c -0.56641,-16.468748 -7,-29.453122 -19.29688,-38.953122 l -30.90234,0 0,-3.25 26.10156,0 c -2.73437,-1.632813 -5.63281,-2.980469 -8.69922,-4.046876 l -17.40234,0 0,-2.75 c -13.63281,0.632813 -24.9336,5.546876 -33.89844,14.75 -9,9.164063 -13.66797,20.582032 -14,34.249998 0.33203,13.69922 5,25.13281 14,34.29688 8.96484,9.16797 20.26563,14.08593 33.89844,14.75 l 0,-3.04688 18.15234,0 c 2.96485,-1.0664 5.78125,-2.41797 8.44922,-4.05078 l -26.60156,0 0,-3.19922 31.25,0 c 12.0664,-9.53515 18.38281,-22.45312 18.94922,-38.75"
       id="path3503"
       inkscape:connector-curvature="0" />
    <path
       style="fill:#ffffff;fill-opacity:1;fill-rule:evenodd;stroke:none"
       d="m 234,123.55078 c 1.53516,0.13281 3.08203,0.19922 4.64844,0.19922 0.0352,0 0.0508,0 0.0508,0 l 0,-3.39844 -18.89844,0 c 4.23438,1.69922 8.96484,2.76563 14.19922,3.19922"
       id="path3505"
       inkscape:connector-curvature="0" />
    <path
       style="fill:#ffffff;fill-opacity:1;fill-rule:evenodd;stroke:none"
       d="m 212,116.25 26.64844,0 0,-3.19922 -30.19922,0 c 1,1.13281 2.18359,2.19922 3.55078,3.19922"
       id="path3507"
       inkscape:connector-curvature="0" />
    <path
       style="fill:#ffffff;fill-opacity:1;fill-rule:evenodd;stroke:none"
       d="m 205.64844,108.94922 33.05078,0 0,-3.19922 -34.05078,0 c 0.20312,1.10156 0.53515,2.16797 1,3.19922"
       id="path3509"
       inkscape:connector-curvature="0" />
    <path
       style="fill:#ffffff;fill-opacity:1;fill-rule:evenodd;stroke:none"
       d="m 208.44922,94.398438 30.19922,0 0,-3.199219 -26.64844,0 c -1.36719,1 -2.55078,2.066406 -3.55078,3.199219"
       id="path3511"
       inkscape:connector-curvature="0" />
    <path
       style="fill:#ffffff;fill-opacity:1;fill-rule:evenodd;stroke:none"
       d="m 204.64844,101.64844 34.05078,0 0,-3.199221 -33.05078,0 c -0.46485,1.035156 -0.79688,2.101561 -1,3.199221"
       id="path3513"
       inkscape:connector-curvature="0" />
    <path
       style="fill:#ffffff;fill-opacity:1;fill-rule:evenodd;stroke:none"
       d="m 238.64844,83.699219 c -1.56641,0 -3.11328,0.06641 -4.64844,0.199219 -5.23438,0.46875 -9.96484,1.535156 -14.19922,3.203124 l 18.89844,0 0,-3.402343 c 0,0 -0.0156,0 -0.0508,0"
       id="path3515"
       inkscape:connector-curvature="0" />
    <path
       style="fill:#ffffff;fill-opacity:1;fill-rule:evenodd;stroke:none"
       d="m 239.19922,152.85156 c 0.40234,0.0312 0.78515,0.0469 1.15234,0.0469 6.03125,-0.0312 11.71485,-1.04688 17.04688,-3.04688 l -18.19922,0 0,3"
       id="path3517"
       inkscape:connector-curvature="0" />
    <path
       style="fill:#ffffff;fill-opacity:1;fill-rule:evenodd;stroke:none"
       d="m 265.89844,135.30078 -26.69922,0 0,3.19922 30.19922,0 c -1,-1.13281 -2.16407,-2.19922 -3.5,-3.19922"
       id="path3519"
       inkscape:connector-curvature="0" />
    <path
       style="fill:#ffffff;fill-opacity:1;fill-rule:evenodd;stroke:none"
       d="m 239.19922,145.80078 26.60156,0 c 1.59766,-0.96875 3.14844,-2.03516 4.64844,-3.19922 l -31.25,0 0,3.19922"
       id="path3521"
       inkscape:connector-curvature="0" />
    <path
       style="fill:#ffffff;fill-opacity:1;fill-rule:evenodd;stroke:none"
       d="m 243.89844,128 c -1.53125,-0.13281 -3.09766,-0.19922 -4.69922,-0.19922 0,0 0,0 0,0 l 0,3.39844 18.90234,0 C 253.86719,129.53516 249.13281,128.46484 243.89844,128"
       id="path3523"
       inkscape:connector-curvature="0" />
    <path
       style="fill:#ffffff;fill-opacity:1;fill-rule:evenodd;stroke:none"
       d="m 256.60156,57.550781 c -5.10156,-1.800781 -10.51953,-2.71875 -16.25,-2.75 -0.36719,0 -0.75,0.01563 -1.15234,0.05078 l 0,2.699219 17.40234,0"
       id="path3525"
       inkscape:connector-curvature="0" />
    <path
       style="fill:#ffffff;fill-opacity:1;fill-rule:evenodd;stroke:none"
       d="m 239.19922,72.148438 26.69922,0 c 1.33593,-1 2.5,-2.066407 3.5,-3.199219 l -30.19922,0 0,3.199219"
       id="path3527"
       inkscape:connector-curvature="0" />
    <path
       style="fill:#ffffff;fill-opacity:1;fill-rule:evenodd;stroke:none"
       d="m 239.19922,64.851562 30.90234,0 c -1.53515,-1.136718 -3.11719,-2.203124 -4.75,-3.203124 l -26.15234,0 0,3.203124"
       id="path3529"
       inkscape:connector-curvature="0" />
    <path
       style="fill:#ffffff;fill-opacity:1;fill-rule:evenodd;stroke:none"
       d="m 243.89844,79.398438 c 5.23437,-0.433594 9.96875,-1.5 14.20312,-3.199219 l -18.90234,0 0,3.402343 c 0,0 0,0 0,0 1.60156,0 3.16797,-0.06641 4.69922,-0.203124"
       id="path3531"
       inkscape:connector-curvature="0" />
  </g>
  <g
     id="surface4"
     transform="matrix(1.4282025,0,0,1.4282025,-216.62293,-62.544803)"
     style="fill:#ffffff">
    <text
       style="font-size:50px;font-family:'Albertus Medium';fill:#ffffff"
       font-size="50"
       transform="translate(147.67822,206.65)"
       id="text3534"><![CDATA[IT2GO2]]></text>
  </g>
</svg>
